PathFileType	4	(X/Y/Z)	C:/Users/opensim2020/Desktop/walking_exp_matlab/subject03_walking09_straight_04.trc	
DataRate	CameraRate	NumFrames	NumMarkers	Units	OrigDataRate	OrigDataStartFrame	OrigNumFrames	
100.00	100.00	9	47	mm	100.00	3833	353	
Frame#	Time	LFHD			RFHD			LBHD			RBHD			C7			T10			CLAV			STRN			RBAK			LSHO			LUPA			LELB			LFRM			LWRA			LWRB			LFIN			RSHO			RUPA			RELB			RFRM			RWRA			RWRB			RFIN			LASI			RASI			LPSI			RPSI			LTHI			LKNE			LTIB			LANK			LHEE			LTOE			RTHI			RKNE			RTIB			RANK			RHEE			RTOE			*39			*40			*41			*42			*43			*44			*45			*46			
		X1	Y1	Z1	X2	Y2	Z2	X3	Y3	Z3	X4	Y4	Z4	X5	Y5	Z5	X6	Y6	Z6	X7	Y7	Z7	X8	Y8	Z8	X9	Y9	Z9	X10	Y10	Z10	X11	Y11	Z11	X12	Y12	Z12	X13	Y13	Z13	X14	Y14	Z14	X15	Y15	Z15	X16	Y16	Z16	X17	Y17	Z17	X18	Y18	Z18	X19	Y19	Z19	X20	Y20	Z20	X21	Y21	Z21	X22	Y22	Z22	X23	Y23	Z23	X24	Y24	Z24	X25	Y25	Z25	X26	Y26	Z26	X27	Y27	Z27	X28	Y28	Z28	X29	Y29	Z29	X30	Y30	Z30	X31	Y31	Z31	X32	Y32	Z32	X33	Y33	Z33	X34	Y34	Z34	X35	Y35	Z35	X36	Y36	Z36	X37	Y37	Z37	X38	Y38	Z38	X39	Y39	Z39	X40	Y40	Z40	X41	Y41	Z41	X42	Y42	Z42	X43	Y43	Z43	X44	Y44	Z44	X45	Y45	Z45	X46	Y46	Z46	X47	Y47	Z47	

89	0.880	1481.91846	824.50934	1630.66760	1349.60986	833.55835	1638.41052	1483.81189	944.60492	1567.34290	1352.83728	948.26727	1575.11389	1428.86560	959.85522	1419.31689	1438.57275	990.68451	1107.72424	1418.81787	836.11578	1344.43835	1428.61743	791.86798	1179.54639	1344.34814	1019.28625	1242.78174	1576.91174	866.56958	1385.59558	1644.94202	852.14948	1189.55383	1650.79517	826.40985	1068.12158	1638.73560	772.46643	950.34595	1597.22095	728.31750	844.14282	1649.07495	748.09363	839.10858	1631.89197	710.28638	765.65204	1263.47058	896.86462	1363.21729	1202.64954	906.09955	1137.49854	1195.72107	894.51013	1024.29773	1197.97620	885.96716	887.38055	1235.43860	860.84937	791.19525	1192.28625	893.94952	787.04376	1204.56177	876.94244	714.52393	1553.40845	820.80078	940.54675	1314.11499	823.23322	946.27533	1504.05994	982.23853	966.17944	1355.51367	983.80176	974.16199	1592.35645	915.62201	641.80084	1563.51001	949.27411	465.46408	1563.88574	1081.86292	312.29657	1524.37683	1196.91992	137.04988	1486.75769	1247.48840	125.67291	1497.08936	1083.61475	33.77200	1273.97607	848.18884	651.91852	1311.96960	804.12732	476.70941	1308.50427	817.61652	288.69525	1355.44495	796.84375	72.86361	1409.06360	834.21417	39.53350	1369.19446	651.77020	38.52892	1437.90442	918.47650	1678.77063																					 
90	0.890	1481.08813	817.07007	1631.75708	1348.80652	825.70941	1639.39075	1482.71704	937.12396	1568.36658	1351.90076	940.54059	1576.05225	1427.69458	952.32434	1420.32849	1436.78564	982.48871	1108.57373	1418.05212	828.28723	1345.67542	1427.87317	783.78925	1180.68982	1342.59888	1010.87866	1243.75317	1576.03174	859.37610	1386.87695	1643.95374	845.87323	1190.65063	1650.23438	821.95154	1068.92664	1639.26831	769.94678	949.91016	1598.98547	727.37427	842.50409	1650.56360	748.18939	838.19257	1634.20825	712.16913	763.53180	1262.51404	888.48444	1364.51208	1201.27283	896.98254	1138.91785	1194.31262	885.24530	1025.75012	1196.47485	876.47937	888.88019	1233.96863	851.20258	792.68927	1190.67249	884.28400	788.50317	1203.03601	867.31177	715.78345	1551.96411	812.68518	941.86609	1312.88672	814.60260	946.99622	1502.37366	974.04358	967.38715	1353.81091	975.22461	975.26892	1591.77502	904.71118	641.73456	1565.23169	936.57324	465.29822	1564.61865	1072.20667	314.59586	1524.02478	1190.99805	142.21683	1485.78345	1241.26465	133.07327	1496.87903	1082.92981	33.83052	1273.30090	843.28131	652.46680	1310.92834	800.87054	476.55060	1308.20959	815.96320	288.72571	1355.61816	796.74982	72.78323	1409.19507	834.18835	39.54832	1369.19141	651.62653	38.38292	1436.71118	910.89441	1679.66272																					 
91	0.900	1480.28174	809.63300	1632.69238	1347.98645	818.00348	1640.22058	1481.29565	929.33643	1569.25195	1350.84973	932.80640	1576.90247	1426.36719	944.49670	1420.91504	1434.80237	974.42926	1109.23987	1417.24622	820.48065	1346.61768	1427.08606	775.74823	1181.76331	1340.84204	1002.54352	1244.53455	1575.00244	852.06445	1387.87549	1643.04590	839.58691	1191.55432	1649.62170	817.27655	1069.37354	1639.98181	767.46179	949.46069	1600.79480	726.55365	840.75159	1652.16589	748.04401	837.30341	1636.59460	714.32214	761.43976	1261.57983	880.00500	1365.72668	1199.90540	887.86237	1140.18958	1192.85046	875.91406	1027.04163	1194.89661	866.93286	890.22540	1232.35852	841.31744	793.96008	1189.10693	874.36395	789.79352	1201.41479	857.43134	717.08716	1550.62549	804.92682	942.96344	1311.61523	806.20056	947.37415	1500.54956	966.12689	968.43060	1352.00330	966.75812	976.29749	1592.00342	894.03333	641.89136	1567.72852	923.63629	465.10370	1565.37476	1061.99634	316.80917	1523.61072	1184.26550	147.41512	1484.54675	1234.07422	140.69600	1496.68359	1082.12854	33.66483	1272.58789	837.88385	652.63849	1309.99316	797.43365	476.40402	1307.87549	814.23163	288.68271	1355.79578	796.69745	72.79606	1409.27026	834.14935	39.53241	1369.28906	651.48572	38.24787	1435.69397	903.41229	1680.70020																					 
92	0.910	1479.48706	802.18896	1633.45203	1347.18042	810.21967	1640.83545	1480.27222	921.95825	1570.14111	1349.63843	924.98962	1577.58484	1425.38391	937.07324	1421.60083	1432.70068	966.46777	1109.74365	1416.38562	812.64117	1347.30042	1426.25806	767.71808	1182.61121	1339.10205	994.22766	1245.14856	1574.01672	844.74536	1388.60437	1642.24121	833.41663	1192.25830	1649.22253	812.59833	1069.82849	1640.83508	765.01733	948.99622	1602.78748	725.73608	838.96069	1653.91919	747.89508	836.32874	1638.97083	716.23895	759.27686	1260.64990	871.63074	1366.64246	1198.54395	878.63922	1141.27136	1191.34460	866.46844	1028.19373	1193.30078	857.03339	891.36627	1230.63623	831.40149	795.23846	1187.30627	864.30566	790.92224	1199.84912	847.08801	718.21014	1549.27014	797.34595	943.95239	1310.44885	797.96088	947.61859	1498.72449	958.49255	969.20520	1350.17285	958.44043	977.13605	1593.01868	883.50659	642.24719	1569.64087	909.55652	464.34662	1566.28320	1051.11316	319.02322	1523.07410	1176.44824	152.27068	1483.26013	1225.85315	148.43036	1496.39270	1081.02417	33.98728	1271.63867	832.34027	653.02100	1309.02002	793.93842	476.30734	1307.34143	812.32501	288.75143	1355.92175	796.55823	72.77700	1409.33350	834.11047	39.55330	1369.37378	651.32275	38.09320	1434.62219	895.83514	1681.45532																					 
93	0.920	1478.74890	794.78497	1634.03333	1346.34790	802.59393	1641.29321	1479.72278	915.00427	1570.93970	1348.70129	917.39709	1578.16870	1424.13257	929.33820	1421.90466	1430.57166	958.64563	1110.10022	1415.69849	804.93201	1347.87561	1425.49402	760.00275	1183.21326	1337.25464	985.92914	1245.51270	1573.04333	837.52972	1389.06775	1641.40820	827.17157	1192.65100	1648.82068	807.74121	1070.07288	1641.72021	762.36322	948.31647	1604.85791	724.87213	837.10547	1655.81555	747.58441	835.42078	1641.36389	718.09253	757.07794	1259.71741	863.36420	1367.38928	1197.20300	869.25549	1142.14087	1189.79578	856.98212	1029.17468	1191.63965	847.05182	892.36401	1229.00549	821.29248	796.14154	1185.58093	853.95648	791.89319	1197.95337	836.85614	719.24225	1547.98718	789.93475	944.66486	1309.37915	789.79724	947.64758	1496.92969	951.01245	969.68903	1348.37793	950.27386	977.83862	1593.82776	872.80414	642.13751	1571.91724	895.42059	463.52826	1567.27515	1039.60999	321.16388	1522.98840	1168.18848	157.61653	1482.13513	1216.65771	156.24670	1496.42322	1079.92236	34.50970	1270.88928	827.17535	653.60187	1308.08252	790.41492	476.26010	1306.72205	810.24567	288.82242	1356.01636	796.31305	72.74184	1409.28430	834.08575	39.60475	1369.39636	651.15186	37.90822	1433.55457	888.19360	1682.08044																					 
94	0.930	1478.02429	787.38788	1634.35645	1345.63281	794.87341	1641.48523	1478.79126	907.71295	1571.45435	1347.71289	909.72723	1578.53931	1422.93018	921.65601	1422.00159	1428.53064	950.87714	1110.26428	1415.06055	797.28827	1348.25024	1424.76453	752.10944	1183.57214	1335.34473	977.71716	1245.73474	1572.14685	830.43414	1389.28210	1640.70532	821.05823	1192.84973	1648.51233	802.82520	1070.10437	1642.71240	759.63257	947.53632	1607.04822	723.83655	835.32690	1657.78186	747.17181	834.35590	1643.85803	719.80811	754.99554	1258.85266	855.02136	1367.97070	1195.78809	860.01495	1142.86047	1188.29431	847.33795	1029.93787	1189.84912	836.98444	893.20361	1227.04688	810.59534	797.10541	1183.65979	843.52936	792.66937	1196.13623	825.81439	719.93420	1546.68604	782.83728	945.18433	1308.28198	781.72961	947.62000	1495.28076	943.78748	969.85388	1346.69910	942.31512	978.46021	1594.86438	862.07678	641.89056	1574.17529	880.94751	462.56589	1567.55261	1027.44153	323.02667	1522.96777	1158.78442	162.41106	1481.22058	1206.57874	163.99281	1495.30859	1078.93384	33.95375	1269.41663	821.41364	654.11023	1307.01672	786.61823	476.09357	1306.01807	808.02014	288.85403	1355.84888	796.34271	72.62728	1409.21924	834.04840	39.64019	1369.43640	650.98596	37.79716	1432.51941	880.56952	1682.53406																					 
95	0.940	1477.39075	780.03436	1634.46594	1344.99463	787.15607	1641.48340	1477.98267	900.44635	1571.73450	1346.92273	902.23969	1578.73718	1421.80701	914.07330	1422.03333	1426.58569	943.27820	1110.26538	1414.46985	789.70508	1348.35181	1424.07495	744.55298	1183.67383	1333.44287	969.51624	1245.77454	1571.31555	823.39966	1389.22180	1639.97559	815.01709	1192.76270	1648.05676	797.67804	1069.72766	1643.76025	756.82483	946.65692	1609.25867	722.85297	833.42188	1659.89795	746.42517	833.33911	1646.34021	721.30920	752.89093	1258.03040	846.64197	1368.25684	1194.38440	850.67389	1143.35400	1186.73950	837.64337	1030.51086	1188.14014	826.62946	893.76373	1225.56250	800.53424	797.65741	1181.86230	832.62085	793.23962	1194.20691	814.92517	720.59601	1545.58142	775.81482	945.22937	1307.30811	773.96527	947.61053	1493.77783	936.80023	969.69177	1345.20068	934.61798	978.96136	1595.61816	851.25812	641.19153	1576.49463	866.71191	461.64835	1568.52075	1014.89130	324.83444	1523.44092	1148.64709	166.90794	1481.17017	1195.82178	171.84125	1495.37488	1077.11536	34.56326	1268.18359	815.16077	654.42688	1305.80579	782.43719	476.11945	1305.25037	805.49445	288.79056	1355.75208	796.15973	72.56125	1409.12805	834.05304	39.67511	1369.47156	650.84576	37.64487	1431.88110	873.24475	1683.04846																					 
96	0.950	1476.82043	772.74677	1634.43042	1344.38660	779.46558	1641.31519	1477.08496	893.17065	1571.76282	1346.01038	894.60266	1578.64355	1420.66357	906.57654	1421.90466	1424.85071	935.83630	1110.13477	1413.97827	782.14368	1348.29150	1423.53943	737.02759	1183.48938	1331.47925	961.43170	1245.65625	1570.57556	816.59583	1388.94250	1639.31848	809.17761	1192.41699	1648.10779	793.04791	1069.54968	1644.80750	753.93396	945.55176	1611.50806	721.63794	831.53296	1662.01172	745.65704	832.18542	1648.85815	722.65112	750.78711	1257.24451	838.25507	1368.38647	1192.92932	841.40863	1143.61377	1185.13855	827.79962	1030.84497	1186.46118	816.10828	894.20050	1223.55542	789.48621	798.14819	1179.90759	821.67426	793.60461	1192.29224	803.46149	720.96942	1544.55981	769.23022	944.88257	1306.33862	766.32330	947.64691	1492.40674	929.99048	969.21692	1343.83911	927.19324	979.37830	1596.42566	840.73248	640.43347	1577.78918	851.67664	460.50867	1569.18335	1001.54382	326.35904	1524.12097	1137.97266	171.32101	1481.42444	1184.62903	179.34778	1495.67871	1073.12329	36.27891	1267.00964	809.76501	654.96075	1305.05884	778.24420	475.95090	1304.53882	802.86267	288.74274	1355.70349	795.90027	72.47520	1409.01123	834.06091	39.69715	1369.52234	650.72095	37.55798	1430.98792	865.68170	1682.87817																					 
97	0.960	1476.32776	765.49860	1634.27722	1343.86047	771.89929	1641.13428	1476.28882	885.88477	1571.55481	1345.26685	887.02460	1578.43469	1419.72009	899.27441	1421.85730	1423.26013	928.56671	1109.97913	1413.53796	774.67389	1348.01831	1423.11230	729.55023	1183.19141	1329.55957	953.47644	1245.50818	1569.96558	809.89648	1388.47754	1638.74329	803.53210	1191.84839	1648.15662	788.32214	1069.00537	1645.96033	751.13678	944.47510	1613.72595	720.68451	829.62494	1664.14282	744.54834	831.04034	1651.46399	723.65582	748.83313	1256.47681	829.89636	1368.29871	1191.56689	831.98846	1143.60706	1183.58044	817.90588	1030.95898	1184.61011	805.54242	894.42792	1221.64893	778.29242	798.61249	1177.98999	810.45764	793.78485	1190.17737	792.07697	721.29388	1543.62866	762.78394	944.29584	1305.44397	758.97083	947.69910	1491.19324	923.43707	968.46631	1342.64941	920.02100	979.67432	1597.06287	830.27631	639.39819	1579.07410	836.85889	459.49283	1570.06909	987.73938	327.65356	1524.20142	1127.15649	175.89838	1481.37524	1173.37976	185.96980	1497.76123	1066.33972	39.58783	1266.43237	804.34735	655.07947	1303.93433	773.86426	476.06470	1303.87305	800.26086	288.71494	1355.64465	795.76379	72.52470	1408.92188	834.06744	39.76345	1369.59277	650.60681	37.44909	1430.20459	858.30029	1682.64929																					 
